<svg width="397" height="130" viewBox="0 0 397 130" fill="none" xmlns="http://www.w3.org/2000/svg">
<rect y="15" width="100" height="100" rx="50" fill="#33CCCC"/>
<path d="M37.0824 89L56.3778 50.8182V50.5H33.9006V42.4545H66.5597V50.6136L47.2415 89H37.0824Z" fill="white"/>
<path d="M155.253 57C154.935 55.8939 154.488 54.9167 153.912 54.0682C153.336 53.2045 152.632 52.4773 151.798 51.8864C150.98 51.2803 150.041 50.8182 148.98 50.5C147.935 50.1818 146.776 50.0227 145.503 50.0227C143.124 50.0227 141.033 50.6136 139.23 51.7955C137.442 52.9773 136.048 54.697 135.048 56.9545C134.048 59.197 133.548 61.9394 133.548 65.1818C133.548 68.4242 134.041 71.1818 135.026 73.4545C136.01 75.7273 137.404 77.4621 139.207 78.6591C141.01 79.8409 143.139 80.4318 145.594 80.4318C147.821 80.4318 149.723 80.0379 151.298 79.25C152.889 78.447 154.101 77.3182 154.935 75.8636C155.783 74.4091 156.207 72.6894 156.207 70.7045L158.207 71H146.207V63.5909H165.685V69.4545C165.685 73.5455 164.821 77.0606 163.094 80C161.366 82.9242 158.988 85.1818 155.957 86.7727C152.927 88.3485 149.457 89.1364 145.548 89.1364C141.185 89.1364 137.351 88.1742 134.048 86.25C130.745 84.3106 128.17 81.5606 126.321 78C124.488 74.4242 123.571 70.1818 123.571 65.2727C123.571 61.5 124.116 58.1364 125.207 55.1818C126.313 52.2121 127.859 49.697 129.844 47.6364C131.829 45.5758 134.139 44.0076 136.776 42.9318C139.412 41.8561 142.268 41.3182 145.344 41.3182C147.98 41.3182 150.435 41.7045 152.707 42.4773C154.98 43.2348 156.995 44.3106 158.753 45.7045C160.526 47.0985 161.973 48.7576 163.094 50.6818C164.215 52.5909 164.935 54.697 165.253 57H155.253ZM188.804 89.1818C185.213 89.1818 182.122 88.4545 179.531 87C176.955 85.5303 174.971 83.4545 173.577 80.7727C172.183 78.0758 171.486 74.8864 171.486 71.2045C171.486 67.6136 172.183 64.4621 173.577 61.75C174.971 59.0379 176.933 56.9242 179.463 55.4091C182.009 53.8939 184.993 53.1364 188.418 53.1364C190.721 53.1364 192.865 53.5076 194.849 54.25C196.849 54.9773 198.592 56.0758 200.077 57.5455C201.577 59.0152 202.743 60.8636 203.577 63.0909C204.41 65.303 204.827 67.8939 204.827 70.8636V73.5227H175.349V67.5227H195.713C195.713 66.1288 195.41 64.8939 194.804 63.8182C194.198 62.7424 193.357 61.9015 192.281 61.2955C191.221 60.6742 189.986 60.3636 188.577 60.3636C187.107 60.3636 185.804 60.7045 184.668 61.3864C183.546 62.053 182.668 62.9545 182.031 64.0909C181.395 65.2121 181.069 66.4621 181.054 67.8409V73.5455C181.054 75.2727 181.372 76.7652 182.009 78.0227C182.66 79.2803 183.577 80.25 184.759 80.9318C185.94 81.6136 187.342 81.9545 188.963 81.9545C190.039 81.9545 191.024 81.803 191.918 81.5C192.812 81.197 193.577 80.7424 194.213 80.1364C194.849 79.5303 195.334 78.7879 195.668 77.9091L204.622 78.5C204.168 80.6515 203.236 82.5303 201.827 84.1364C200.433 85.7273 198.63 86.9697 196.418 87.8636C194.221 88.7424 191.683 89.1818 188.804 89.1818ZM220.827 41.9545V88.5H211.145V41.9545H220.827ZM250.969 73.6364V53.5909H260.651V88.5H251.355V82.1591H250.991C250.204 84.2045 248.893 85.8485 247.06 87.0909C245.241 88.3333 243.022 88.9545 240.401 88.9545C238.067 88.9545 236.014 88.4242 234.241 87.3636C232.469 86.303 231.082 84.7955 230.082 82.8409C229.098 80.8864 228.598 78.5455 228.582 75.8182V53.5909H238.264V74.0909C238.279 76.1515 238.832 77.7803 239.923 78.9773C241.014 80.1742 242.476 80.7727 244.31 80.7727C245.476 80.7727 246.567 80.5076 247.582 79.9773C248.598 79.4318 249.416 78.6288 250.037 77.5682C250.673 76.5076 250.984 75.197 250.969 73.6364ZM268.395 88.5V53.5909H277.781V59.6818H278.145C278.781 57.5152 279.849 55.8788 281.349 54.7727C282.849 53.6515 284.577 53.0909 286.531 53.0909C287.016 53.0909 287.539 53.1212 288.099 53.1818C288.66 53.2424 289.152 53.3258 289.577 53.4318V62.0227C289.122 61.8864 288.493 61.7652 287.69 61.6591C286.887 61.553 286.152 61.5 285.486 61.5C284.062 61.5 282.789 61.8106 281.668 62.4318C280.562 63.0379 279.683 63.8864 279.031 64.9773C278.395 66.0682 278.077 67.3258 278.077 68.75V88.5H268.395ZM303.537 89.1591C301.31 89.1591 299.325 88.7727 297.582 88C295.84 87.2121 294.461 86.053 293.446 84.5227C292.446 82.9773 291.946 81.053 291.946 78.75C291.946 76.8106 292.302 75.1818 293.014 73.8636C293.726 72.5455 294.696 71.4848 295.923 70.6818C297.151 69.8788 298.545 69.2727 300.105 68.8636C301.681 68.4545 303.332 68.1667 305.06 68C307.09 67.7879 308.726 67.5909 309.969 67.4091C311.211 67.2121 312.113 66.9242 312.673 66.5455C313.234 66.1667 313.514 65.6061 313.514 64.8636V64.7273C313.514 63.2879 313.06 62.1742 312.151 61.3864C311.257 60.5985 309.984 60.2045 308.332 60.2045C306.59 60.2045 305.204 60.5909 304.173 61.3636C303.143 62.1212 302.461 63.0758 302.128 64.2273L293.173 63.5C293.628 61.3788 294.522 59.5455 295.855 58C297.188 56.4394 298.908 55.2424 301.014 54.4091C303.135 53.5606 305.59 53.1364 308.378 53.1364C310.317 53.1364 312.173 53.3636 313.946 53.8182C315.734 54.2727 317.317 54.9773 318.696 55.9318C320.09 56.8864 321.188 58.1136 321.991 59.6136C322.795 61.0985 323.196 62.8788 323.196 64.9545V88.5H314.014V83.6591H313.741C313.181 84.75 312.431 85.7121 311.491 86.5455C310.552 87.3636 309.423 88.0076 308.105 88.4773C306.787 88.9318 305.264 89.1591 303.537 89.1591ZM306.31 82.4773C307.734 82.4773 308.991 82.197 310.082 81.6364C311.173 81.0606 312.029 80.2879 312.651 79.3182C313.272 78.3485 313.582 77.25 313.582 76.0227V72.3182C313.279 72.5152 312.863 72.697 312.332 72.8636C311.817 73.0152 311.234 73.1591 310.582 73.2955C309.931 73.4167 309.279 73.5303 308.628 73.6364C307.976 73.7273 307.385 73.8106 306.855 73.8864C305.719 74.053 304.726 74.3182 303.878 74.6818C303.029 75.0455 302.37 75.5379 301.901 76.1591C301.431 76.7652 301.196 77.5227 301.196 78.4318C301.196 79.75 301.673 80.7576 302.628 81.4545C303.598 82.1364 304.825 82.4773 306.31 82.4773ZM340.389 68.3182V88.5H330.707V53.5909H339.935V59.75H340.344C341.116 57.7197 342.412 56.1136 344.23 54.9318C346.048 53.7348 348.253 53.1364 350.844 53.1364C353.268 53.1364 355.382 53.6667 357.185 54.7273C358.988 55.7879 360.389 57.303 361.389 59.2727C362.389 61.2273 362.889 63.5606 362.889 66.2727V88.5H353.207V68C353.223 65.8636 352.677 64.197 351.571 63C350.465 61.7879 348.942 61.1818 347.003 61.1818C345.7 61.1818 344.548 61.4621 343.548 62.0227C342.563 62.5833 341.791 63.4015 341.23 64.4773C340.685 65.5379 340.404 66.8182 340.389 68.3182Z" fill="#33CCCC"/>
</svg>
