<svg width="300" height="200" viewBox="0 0 300 200" fill="none" xmlns="http://www.w3.org/2000/svg">
<path d="M1.1636 6.89118C1.59996 7.63133 8.72724 16.217 11.6363 19.6217C12 19.9177 68.1455 20.2878 136.509 20.3618L260.728 20.4358L264.582 22.5082C266.764 23.6925 269.309 25.8389 270.546 27.5412C272.873 30.8719 274.546 37.5332 273.964 41.2339C273.746 42.5662 264.509 74.3184 253.528 111.77C242.473 149.295 233.455 180.307 233.455 180.751C233.455 181.861 242.909 192.52 243.928 192.52C244.655 192.52 249.018 178.605 260.146 141.45C263.928 128.719 270.691 106.293 273.091 98.5211C274.037 95.4865 276 88.6032 277.455 83.3482C278.982 78.0191 281.382 69.3594 282.909 64.1044C287.418 48.6354 288 45.7488 288 39.5316C288 32.5742 286.691 27.5412 283.273 21.6941C280.364 16.5871 278.037 14.2926 272.509 10.888C264 5.70695 272.437 6.00301 129.455 6.00301C26.6182 6.00301 0.727235 6.22505 1.1636 6.89118Z" fill="#F54336"/>
<path d="M0 28.8737V35.757L5.67273 43.0104C10.0364 48.7096 11.7818 50.3379 13.4546 50.6339C14.6909 50.856 65.7455 50.93 126.909 50.782C188.146 50.7079 238.909 50.856 239.855 51.226C241.746 51.9662 241.818 53.0024 240.364 57.6653C236.218 71.506 214.109 144.928 213.091 148.481C212.364 150.924 209.964 158.917 207.709 166.319C205.455 173.646 203.637 180.307 203.637 181.121C203.637 181.936 204.218 183.12 204.946 183.712C205.6 184.378 208.073 186.969 210.473 189.485L214.691 194H221.164C224.728 194 227.637 193.778 227.637 193.482C227.637 193.26 225.309 190.595 222.473 187.561C216.437 181.27 216.437 183.86 222.546 164.394C238.182 114.656 255.128 57.0732 256.655 48.4875C257.6 43.2325 256.582 39.6798 253.6 37.8294C251.346 36.3491 248.873 36.3491 131.564 36.3491H11.8546L6.83637 30.2799C4.07273 26.9493 1.45455 23.7667 0.945456 23.1005C0.218182 22.1383 0.0727274 23.2486 0 28.8737Z" fill="#F54336"/>
<path d="M0 61.144V68.5454L3.56364 72.7643C5.52728 75.0587 7.85455 77.9453 8.80001 79.2035L10.5455 81.424L105.746 81.8681C158.182 82.0901 201.309 82.5342 201.673 82.7562C202.4 83.2003 201.818 86.901 200.364 91.4899C199.855 93.1183 197.746 100.076 195.637 107.033C193.528 113.916 189.382 127.609 186.4 137.379C183.418 147.149 179.127 161.212 176.873 168.687L172.873 182.232L178.618 188.153L184.364 194H191.055C194.764 194 197.818 193.778 197.818 193.408C197.818 193.112 195.491 190.521 192.728 187.709C189.964 184.896 187.637 181.936 187.637 181.195C187.637 180.455 188.437 177.421 189.382 174.534C190.328 171.574 193.164 162.544 195.637 154.402C198.109 146.261 201.746 134.418 203.709 128.127C209.818 108.291 216.509 86.0129 220.146 73.5784C220.8 71.432 221.091 69.2856 220.873 68.6935C220.582 67.8053 204.073 67.5833 115.855 67.1392L11.2727 66.6211L8.00001 62.7723C6.18183 60.6259 3.63637 57.7393 2.4 56.3331L0.0727274 53.7426L0 61.144Z" fill="#F54336"/>
<path d="M25.1626 99.1874C24.799 99.7055 5.08984 192.594 5.08984 193.63C5.08984 193.852 10.4717 194 17.0899 194C28.9444 194 29.0899 194 29.4535 192.298C29.599 191.409 30.2535 188.005 30.9081 184.748C31.4899 181.492 32.4353 176.681 33.0171 174.016C33.6717 171.352 34.8353 165.726 35.6353 161.434C36.5081 157.141 38.2535 148.629 39.6353 142.56C40.9444 136.417 42.6899 128.645 43.3444 125.167C44.0717 121.688 45.0172 118.579 45.3808 118.283C46.3263 117.543 57.4535 118.283 61.3081 119.319C67.9263 121.096 70.6172 126.943 67.7808 133.456C65.9626 137.601 62.6899 140.191 57.0899 141.82C49.6717 143.966 46.5444 147.371 46.5444 153.144C46.5444 155.66 49.5263 167.059 55.7081 187.857L57.5263 194H70.1808C78.8354 194 82.9081 193.778 82.9081 193.186C82.9081 192.742 80.4354 184.896 77.4536 175.718C74.4717 166.615 71.999 158.473 71.999 157.733C71.999 156.993 73.0899 155.586 74.4717 154.55C81.8899 148.777 88.9445 139.451 91.4172 132.346C93.2354 126.869 93.0899 119.171 90.9808 114.434C88.8718 109.549 84.2899 104.887 78.9081 102C74.5445 99.7055 74.5445 99.7055 58.9081 99.1874C36.799 98.4473 25.599 98.4473 25.1626 99.1874Z" fill="#F54336"/>
<path d="M109.674 98.9654C109.019 99.1874 108.292 99.9276 108.074 100.594C107.201 103.258 104.729 116.507 104.729 118.209V119.986H115.929C124.219 119.986 127.274 120.208 127.856 120.948C128.438 121.614 128.292 123.76 127.274 128.571C124.51 141.746 121.456 156.253 117.819 173.868C115.71 183.712 114.183 192.298 114.474 192.89C114.765 193.778 116.729 194 125.31 194C132.874 194 136.001 193.704 136.583 193.038C137.31 192.15 140.51 177.717 146.91 145.891C151.638 122.502 151.929 121.244 152.947 120.578C153.456 120.282 158.91 119.986 165.165 119.986C173.383 119.986 176.729 119.763 177.31 119.023C178.183 117.913 181.092 104.59 181.092 101.482V99.2614H167.783C160.438 99.2614 144.656 99.1134 132.656 98.8914C120.729 98.7433 110.329 98.7433 109.674 98.9654Z" fill="#F54336"/>
</svg>
