<svg width="500" height="130" viewBox="0 0 500 130" fill="none" xmlns="http://www.w3.org/2000/svg">
<path d="M68.8886 37.988L21.1568 85.13H11L68.2469 27.8831L68.8886 37.988Z" fill="#2185F4"/>
<path d="M88.8202 18.3267L68.8885 37.9889H34.3374V18.3267H88.8202Z" fill="#2185F4"/>
<path d="M88.8202 18.3267L68.8885 38.0003C69.4178 22.0151 34.3374 18.3267 34.3374 18.3267H88.8202Z" fill="#2185F4"/>
<path d="M50.5098 66.3753L99.1606 18.3267H109.321L62.1746 65.4563L50.5098 66.3753Z" fill="#F24614"/>
<path d="M31.4971 85.1299L51.4314 65.4563H85.9799V85.1299H31.4971Z" fill="#F24614"/>
<path d="M31.4971 85.1299L51.4314 65.4563C50.9047 81.4406 85.9825 85.1299 85.9825 85.1299H31.4971Z" fill="#F24614"/>
<path d="M80.4023 51.5822C80.4023 70.9337 95.2684 85.159 114.748 85.159C134.228 85.159 149.094 70.9337 149.094 51.5822C149.094 32.2307 134.228 18.0054 114.749 18.0054C95.2701 18.0054 80.4023 32.2307 80.4023 51.5822ZM135 51.5822C135 63.1162 126.542 72.0871 114.752 72.0871C102.961 72.0871 94.503 63.1162 94.503 51.5822C94.503 40.0482 102.961 31.0773 114.752 31.0773C126.542 31.0773 134.997 40.0482 134.997 51.5822H135ZM212.533 77.5978V46.8422C212.533 28.0033 201.512 18.0072 187.03 18.0072C178.572 18.0072 170.37 21.7237 166.654 28.3878V25.5684C166.675 24.6427 166.507 23.7225 166.159 22.8645C165.81 22.0066 165.29 21.2292 164.629 20.5806C163.969 19.9319 163.182 19.4257 162.318 19.0933C161.453 18.7608 160.53 18.6093 159.605 18.648C158.68 18.6093 157.757 18.7608 156.893 19.0933C156.028 19.4257 155.242 19.9319 154.581 20.5806C153.92 21.2292 153.4 22.0066 153.052 22.8645C152.703 23.7225 152.535 24.6427 152.557 25.5684V77.5978C152.535 78.5234 152.703 79.4437 153.052 80.3016C153.4 81.1595 153.92 81.9369 154.581 82.5856C155.242 83.2343 156.028 83.7405 156.893 84.0729C157.757 84.4053 158.68 84.5569 159.605 84.5182C160.53 84.5569 161.453 84.4053 162.318 84.0729C163.182 83.7405 163.969 83.2343 164.629 82.5856C165.29 81.9369 165.81 81.1595 166.159 80.3016C166.507 79.4437 166.675 78.5234 166.654 77.5978V49.1472C166.654 37.7414 173.702 31.3336 183.314 31.3336C192.285 31.3336 198.436 36.9725 198.436 47.3531V77.5978C198.415 78.5234 198.583 79.4437 198.931 80.3016C199.279 81.1595 199.8 81.9369 200.461 82.5856C201.121 83.2343 201.908 83.7405 202.772 84.0729C203.637 84.4053 204.56 84.5569 205.485 84.5182C206.41 84.5569 207.333 84.4053 208.197 84.0729C209.061 83.7405 209.848 83.2343 210.509 82.5856C211.17 81.9369 211.69 81.1595 212.038 80.3016C212.387 79.4437 212.555 78.5234 212.533 77.5978ZM270.46 77.5978C270.438 78.5234 270.606 79.4437 270.955 80.3016C271.303 81.1595 271.823 81.9369 272.484 82.5856C273.145 83.2343 273.932 83.7405 274.796 84.0729C275.66 84.4053 276.583 84.5569 277.508 84.5182C278.433 84.5565 279.356 84.4047 280.22 84.0721C281.084 83.7395 281.87 83.2332 282.531 82.5846C283.191 81.9359 283.711 81.1587 284.059 80.301C284.407 79.4432 284.576 78.5232 284.554 77.5978V25.5666C284.576 24.641 284.407 23.7207 284.059 22.8628C283.711 22.0049 283.19 21.2275 282.53 20.5788C281.869 19.9301 281.082 19.4239 280.218 19.0915C279.354 18.7591 278.431 18.6075 277.506 18.6462C276.581 18.6075 275.657 18.7591 274.793 19.0915C273.929 19.4239 273.142 19.9301 272.481 20.5788C271.821 21.2275 271.3 22.0049 270.952 22.8628C270.604 23.7207 270.435 24.641 270.457 25.5666V28.2579C267.518 24.9589 263.901 22.3346 259.853 20.565C255.805 18.7953 251.422 17.9222 247.005 18.0054C228.55 18.0054 215.35 32.1026 215.35 51.5822C215.35 71.0618 228.55 85.159 247.005 85.159C251.422 85.2422 255.805 84.3691 259.853 82.5994C263.901 80.8298 267.518 78.2055 270.457 74.9065L270.46 77.5978ZM270.46 51.5822C270.46 63.3725 261.745 72.3434 249.955 72.3434C238.164 72.3434 229.45 63.3725 229.45 51.5822C229.45 39.7919 238.164 30.821 249.955 30.821C261.745 30.821 270.457 39.7919 270.457 51.5822H270.46Z" fill="#F24614"/>
<path d="M305.059 25.5666C305.081 24.641 304.912 23.7207 304.564 22.8628C304.216 22.0049 303.695 21.2275 303.034 20.5788C302.374 19.9301 301.587 19.4239 300.723 19.0915C299.859 18.7591 298.935 18.6075 298.01 18.6462C297.085 18.6075 296.162 18.7591 295.298 19.0915C294.434 19.4239 293.647 19.9301 292.986 20.5788C292.326 21.2275 291.805 22.0049 291.457 22.8628C291.109 23.7207 290.94 24.641 290.962 25.5666V105.023C290.94 105.949 291.109 106.869 291.457 107.727C291.805 108.585 292.326 109.362 292.986 110.011C293.647 110.66 294.434 111.166 295.298 111.498C296.162 111.831 297.085 111.982 298.01 111.943C298.935 111.982 299.859 111.831 300.723 111.498C301.587 111.166 302.374 110.66 303.034 110.011C303.695 109.362 304.216 108.585 304.564 107.727C304.912 106.869 305.081 105.949 305.059 105.023V74.9065C307.998 78.2055 311.615 80.8298 315.663 82.5994C319.711 84.3691 324.094 85.2422 328.511 85.159C346.966 85.159 360.166 71.0618 360.166 51.5822C360.166 32.1026 346.966 18.0054 328.511 18.0054C324.094 17.9222 319.711 18.7953 315.663 20.565C311.615 22.3346 307.998 24.9589 305.059 28.2579V25.5666ZM305.059 51.5822C305.059 39.7919 313.774 30.821 325.564 30.821C337.354 30.821 346.069 39.7919 346.069 51.5822C346.069 63.3725 337.353 72.3434 325.564 72.3434C313.774 72.3434 305.059 63.3725 305.059 51.5822ZM415.785 77.5978C415.764 78.5234 415.932 79.4437 416.28 80.3016C416.629 81.1595 417.149 81.9369 417.81 82.5856C418.47 83.2343 419.257 83.7405 420.121 84.0729C420.986 84.4053 421.909 84.5569 422.834 84.5182C423.759 84.5569 424.682 84.4053 425.546 84.0729C426.411 83.7405 427.197 83.2343 427.858 82.5856C428.519 81.9369 429.039 81.1595 429.387 80.3016C429.736 79.4437 429.904 78.5234 429.882 77.5978V25.5666C429.904 24.641 429.736 23.7207 429.387 22.8628C429.039 22.0049 428.519 21.2275 427.858 20.5788C427.197 19.9301 426.411 19.4239 425.546 19.0915C424.682 18.7591 423.759 18.6075 422.834 18.6462C421.909 18.6075 420.986 18.7591 420.121 19.0915C419.257 19.4239 418.47 19.9301 417.81 20.5788C417.149 21.2275 416.629 22.0049 416.28 22.8628C415.932 23.7207 415.764 24.641 415.785 25.5666V28.2579C412.847 24.9589 409.229 22.3346 405.181 20.565C401.133 18.7953 396.75 17.9222 392.333 18.0054C373.878 18.0054 360.678 32.1026 360.678 51.5822C360.678 71.0618 373.878 85.159 392.333 85.159C396.75 85.2422 401.133 84.3691 405.181 82.5994C409.229 80.8298 412.847 78.2055 415.785 74.9065V77.5978ZM415.785 51.5822C415.785 63.3725 407.071 72.3434 395.28 72.3434C383.49 72.3434 374.776 63.3725 374.776 51.5822C374.776 39.7919 383.49 30.821 395.28 30.821C407.071 30.821 415.785 39.7919 415.785 51.5822ZM489.343 28.0016C489.675 27.1612 489.835 26.2629 489.814 25.3597C489.794 24.4564 489.592 23.5664 489.222 22.7423C488.851 21.9181 488.32 21.1765 487.658 20.561C486.997 19.9456 486.219 19.4688 485.37 19.1588C484.474 18.8035 483.515 18.6293 482.551 18.6462C481.185 18.6572 479.858 19.0958 478.754 19.9004C477.651 20.7049 476.827 21.8349 476.399 23.1317L460.512 67.47L443.98 23.1317C443.524 21.8272 442.676 20.6958 441.551 19.8926C440.427 19.0895 439.082 18.6541 437.7 18.6462C436.819 18.6302 435.944 18.805 435.137 19.1588C434.261 19.4747 433.458 19.9633 432.775 20.5957C432.091 21.2281 431.542 21.9913 431.16 22.84C430.777 23.6887 430.569 24.6057 430.548 25.5364C430.527 26.4671 430.692 27.3926 431.036 28.2579L453.207 83.1085L446.03 101.691C445.698 102.531 445.538 103.43 445.559 104.333C445.58 105.236 445.781 106.126 446.151 106.95C446.522 107.774 447.053 108.516 447.715 109.132C448.376 109.747 449.154 110.224 450.003 110.534C450.9 110.889 451.858 111.063 452.822 111.046C454.191 111.057 455.529 110.644 456.653 109.864C457.777 109.084 458.632 107.975 459.101 106.689L489.343 28.0016Z" fill="#2185F4"/>
</svg>
