<svg width="360" height="160" viewBox="0 0 360 160" fill="none" xmlns="http://www.w3.org/2000/svg">
<path d="M1.41671 2.37517C1.94702 2.98682 10.6086 10.0819 14.1439 12.8955C14.5859 13.1402 82.818 13.446 165.899 13.5072L316.858 13.5683L321.542 15.2809C324.194 16.2596 327.287 18.0333 328.79 19.4401C331.618 22.1925 333.651 27.6974 332.944 30.7556C332.678 31.8566 321.454 58.0963 308.108 89.0456C294.673 120.056 283.714 145.684 283.714 146.051C283.714 146.969 295.204 155.776 296.441 155.776C297.325 155.776 302.628 144.277 316.151 113.573C320.747 103.052 328.966 84.5194 331.883 78.0971C333.032 75.5894 335.418 69.9011 337.186 65.5584C339.042 61.1545 341.959 53.9982 343.815 49.6555C349.295 36.8721 350.002 34.4867 350.002 29.3488C350.002 23.5993 348.411 19.4401 344.257 14.6081C340.721 10.3878 337.893 8.49165 331.176 5.67807C320.835 1.39653 331.087 1.64119 157.325 1.64119C32.351 1.64119 0.886412 1.82469 1.41671 2.37517Z" fill="white"/>
<path d="M0 20.5414V26.2298L6.89392 32.2239C12.1969 36.9336 14.3181 38.2792 16.351 38.5239C17.8535 38.7074 79.8988 38.7685 154.229 38.6462C228.648 38.585 290.34 38.7074 291.489 39.0132C293.787 39.6248 293.875 40.4811 292.108 44.3345C287.07 55.7723 260.201 116.448 258.964 119.384C258.08 121.402 255.163 128.008 252.424 134.124C249.684 140.18 247.474 145.685 247.474 146.357C247.474 147.03 248.181 148.009 249.065 148.498C249.86 149.049 252.865 151.189 255.782 153.269L260.908 157H268.774C273.105 157 276.641 156.817 276.641 156.572C276.641 156.388 273.812 154.186 270.365 151.679C263.03 146.48 263.03 148.62 270.454 132.534C289.456 91.4314 310.05 43.8452 311.906 36.7501C313.055 32.4074 311.817 29.4715 308.194 27.9424C305.454 26.7191 302.449 26.7191 159.886 26.7191H14.4065L8.30806 21.7036C4.94948 18.9512 1.76767 16.3211 1.14899 15.7706C0.265151 14.9754 0.0883836 15.8929 0 20.5414Z" fill="white"/>
<path d="M0 47.2093V53.3258L4.3308 56.8121C6.71715 58.7083 9.54543 61.0937 10.6944 62.1335L12.8156 63.9684L128.51 64.3354C192.234 64.5189 244.646 64.8859 245.088 65.0694C245.972 65.4364 245.264 68.4946 243.497 72.2868C242.878 73.6324 240.315 79.3819 237.752 85.1314C235.189 90.8197 230.151 102.135 226.527 110.209C222.903 118.283 217.689 129.904 214.949 136.082L210.088 147.275L217.07 152.168L224.052 157H232.184C236.691 157 240.403 156.817 240.403 156.511C240.403 156.266 237.575 154.125 234.217 151.801C230.858 149.477 228.03 147.03 228.03 146.418C228.03 145.807 229.002 143.299 230.151 140.914C231.3 138.467 234.747 131.005 237.752 124.277C240.757 117.549 245.176 107.762 247.562 102.563C254.987 86.1712 263.118 67.7606 267.537 57.485C268.333 55.7112 268.686 53.9374 268.421 53.4481C268.067 52.7141 248.004 52.5306 140.795 52.1636L13.6995 51.7355L9.72219 48.5549C7.5126 46.7811 4.41918 44.3957 2.91666 43.2336L0.0883836 41.0928L0 47.2093Z" fill="white"/>
<path d="M63.3083 78.6479C63.0128 79.0761 47 155.838 47 156.694C47 156.878 51.3725 157 56.7495 157C66.3809 157 66.499 157 66.7945 155.593C66.9127 154.859 67.4444 152.046 67.9762 149.354C68.4489 146.663 69.2171 142.687 69.6898 140.486C70.2216 138.284 71.167 133.635 71.817 130.088C72.526 126.54 73.9441 119.506 75.0668 114.49C76.1304 109.414 77.5485 102.992 78.0803 100.117C78.6712 97.242 79.4393 94.6731 79.7347 94.4285C80.5029 93.8168 89.5433 94.4285 92.675 95.2848C98.052 96.7527 100.238 101.585 97.9338 106.967C96.4566 110.392 93.7977 112.533 89.2479 113.879C83.2209 115.653 80.6802 118.466 80.6802 123.237C80.6802 125.317 83.1028 134.736 88.1252 151.923L89.6024 157H99.8837C106.915 157 110.224 156.817 110.224 156.327C110.224 155.96 108.215 149.477 105.793 141.892C103.37 134.369 101.361 127.641 101.361 127.029C101.361 126.418 102.247 125.255 103.37 124.399C109.397 119.628 115.128 111.922 117.137 106.05C118.615 101.524 118.496 95.1624 116.783 91.2479C115.069 87.211 111.347 83.3576 106.974 80.9722C103.429 79.0761 103.429 79.0761 90.7251 78.6479C72.7624 78.0363 63.6628 78.0363 63.3083 78.6479Z" fill="white"/>
<path d="M131.969 78.4645C131.437 78.6479 130.846 79.2596 130.669 79.8101C129.96 82.012 127.951 92.9605 127.951 94.3673V95.8352H137.051C143.787 95.8352 146.268 96.0187 146.741 96.6304C147.214 97.1809 147.096 98.9546 146.268 102.93C144.023 113.818 141.541 125.806 138.587 140.363C136.873 148.498 135.633 155.593 135.869 156.083C136.105 156.817 137.701 157 144.673 157C150.818 157 153.359 156.755 153.832 156.205C154.423 155.471 157.022 143.544 162.222 117.243C166.063 97.9148 166.299 96.875 167.126 96.3246C167.54 96.0799 171.972 95.8352 177.053 95.8352C183.73 95.8352 186.448 95.6518 186.921 95.0401C187.63 94.1226 189.994 83.113 189.994 80.5441V78.7091H179.18C173.213 78.7091 160.39 78.5868 150.641 78.4033C140.951 78.281 132.501 78.281 131.969 78.4645Z" fill="white"/>
</svg>
