<svg width="400" height="250" viewBox="0 0 400 250" fill="none" xmlns="http://www.w3.org/2000/svg">
<path d="M26.4167 47.3752C26.947 47.9868 35.6086 55.0819 39.1439 57.8955C39.5859 58.1402 107.818 58.446 190.899 58.5072L341.858 58.5683L346.542 60.2809C349.194 61.2596 352.287 63.0333 353.79 64.4401C356.618 67.1925 358.651 72.6974 357.944 75.7556C357.678 76.8566 346.454 103.096 333.108 134.046C319.673 165.056 308.714 190.684 308.714 191.051C308.714 191.969 320.204 200.776 321.441 200.776C322.325 200.776 327.628 189.277 341.151 158.573C345.747 148.052 353.966 129.519 356.883 123.097C358.032 120.589 360.418 114.901 362.186 110.558C364.042 106.154 366.959 98.9982 368.815 94.6555C374.295 81.8721 375.002 79.4867 375.002 74.3488C375.002 68.5993 373.411 64.4401 369.257 59.6081C365.721 55.3878 362.893 53.4916 356.176 50.6781C345.835 46.3965 356.087 46.6412 182.325 46.6412C57.351 46.6412 25.8864 46.8247 26.4167 47.3752Z" fill="white"/>
<path d="M25 65.5414V71.2298L31.8939 77.2239C37.1969 81.9336 39.3181 83.2792 41.351 83.5239C42.8535 83.7074 104.899 83.7685 179.229 83.6462C253.648 83.585 315.34 83.7074 316.489 84.0132C318.787 84.6248 318.875 85.4811 317.108 89.3345C312.07 100.772 285.201 161.448 283.964 164.384C283.08 166.402 280.163 173.008 277.424 179.124C274.684 185.18 272.474 190.685 272.474 191.357C272.474 192.03 273.181 193.009 274.065 193.498C274.86 194.049 277.865 196.189 280.782 198.269L285.908 202H293.774C298.105 202 301.641 201.817 301.641 201.572C301.641 201.388 298.812 199.186 295.365 196.679C288.03 191.48 288.03 193.62 295.454 177.534C314.456 136.431 335.05 88.8452 336.906 81.7501C338.055 77.4074 336.817 74.4715 333.194 72.9424C330.454 71.7191 327.449 71.7191 184.886 71.7191H39.4065L33.3081 66.7036C29.9495 63.9512 26.7677 61.3211 26.149 60.7706C25.2652 59.9754 25.0884 60.8929 25 65.5414Z" fill="white"/>
<path d="M25 92.2093V98.3258L29.3308 101.812C31.7172 103.708 34.5454 106.094 35.6944 107.133L37.8156 108.968L153.51 109.335C217.234 109.519 269.646 109.886 270.088 110.069C270.972 110.436 270.264 113.495 268.497 117.287C267.878 118.632 265.315 124.382 262.752 130.131C260.189 135.82 255.151 147.135 251.527 155.209C247.903 163.283 242.689 174.904 239.949 181.082L235.088 192.275L242.07 197.168L249.052 202H257.184C261.691 202 265.403 201.817 265.403 201.511C265.403 201.266 262.575 199.125 259.217 196.801C255.858 194.477 253.03 192.03 253.03 191.418C253.03 190.807 254.002 188.299 255.151 185.914C256.3 183.467 259.747 176.005 262.752 169.277C265.757 162.549 270.176 152.762 272.562 147.563C279.987 131.171 288.118 112.761 292.537 102.485C293.333 100.711 293.686 98.9374 293.421 98.4481C293.067 97.7141 273.004 97.5306 165.795 97.1636L38.6995 96.7355L34.7222 93.5549C32.5126 91.7811 29.4192 89.3957 27.9167 88.2336L25.0884 86.0928L25 92.2093Z" fill="white"/>
<path d="M88.3083 123.648C88.0128 124.076 72 200.838 72 201.694C72 201.878 76.3725 202 81.7495 202C91.3809 202 91.499 202 91.7945 200.593C91.9127 199.859 92.4444 197.046 92.9762 194.354C93.4489 191.663 94.2171 187.687 94.6898 185.486C95.2216 183.284 96.167 178.635 96.817 175.088C97.526 171.54 98.9441 164.506 100.067 159.49C101.13 154.414 102.548 147.992 103.08 145.117C103.671 142.242 104.439 139.673 104.735 139.428C105.503 138.817 114.543 139.428 117.675 140.285C123.052 141.753 125.238 146.585 122.934 151.967C121.457 155.392 118.798 157.533 114.248 158.879C108.221 160.653 105.68 163.466 105.68 168.237C105.68 170.317 108.103 179.736 113.125 196.923L114.602 202H124.884C131.915 202 135.224 201.817 135.224 201.327C135.224 200.96 133.215 194.477 130.793 186.892C128.37 179.369 126.361 172.641 126.361 172.029C126.361 171.418 127.247 170.255 128.37 169.399C134.397 164.628 140.128 156.922 142.137 151.05C143.615 146.524 143.496 140.162 141.783 136.248C140.069 132.211 136.347 128.358 131.974 125.972C128.429 124.076 128.429 124.076 115.725 123.648C97.7624 123.036 88.6628 123.036 88.3083 123.648Z" fill="white"/>
<path d="M156.969 123.464C156.437 123.648 155.846 124.26 155.669 124.81C154.96 127.012 152.951 137.961 152.951 139.367V140.835H162.051C168.787 140.835 171.268 141.019 171.741 141.63C172.214 142.181 172.096 143.955 171.268 147.93C169.023 158.818 166.541 170.806 163.587 185.363C161.873 193.498 160.633 200.593 160.869 201.083C161.105 201.817 162.701 202 169.673 202C175.818 202 178.359 201.755 178.832 201.205C179.423 200.471 182.022 188.544 187.222 162.243C191.063 142.915 191.299 141.875 192.126 141.325C192.54 141.08 196.972 140.835 202.053 140.835C208.73 140.835 211.448 140.652 211.921 140.04C212.63 139.123 214.994 128.113 214.994 125.544V123.709H204.18C198.213 123.709 185.39 123.587 175.641 123.403C165.951 123.281 157.501 123.281 156.969 123.464Z" fill="white"/>
</svg>
