<svg width="290" height="290" viewBox="0 0 290 290" fill="none" xmlns="http://www.w3.org/2000/svg">
<path d="M2.1636 22.176C2.59996 23.1524 9.72724 34.4781 12.6363 38.9694C13 39.36 69.1455 39.8481 137.509 39.9458L261.728 40.0434L265.582 42.7772C267.764 44.3394 270.309 47.1708 271.546 49.4164C273.873 53.8101 275.546 62.5973 274.964 67.4791C274.746 69.2365 265.509 111.122 254.528 160.526C243.473 210.028 234.455 250.937 234.455 251.523C234.455 252.987 243.909 267.047 244.928 267.047C245.655 267.047 250.018 248.691 261.146 199.678C264.928 182.885 271.691 153.301 274.091 143.049C275.037 139.046 277 129.966 278.455 123.034C279.982 116.004 282.382 104.581 283.909 97.6486C288.418 77.2427 289 73.4349 289 65.2335C289 56.0557 287.691 49.4164 284.273 41.7032C281.364 34.9663 279.037 31.9396 273.509 27.4484C265 20.6139 273.437 21.0044 130.455 21.0044C27.6182 21.0044 1.72723 21.2973 2.1636 22.176Z" fill="#F54336"/>
<path d="M1 54.1191V63.0765L6.67282 72.5155C11.0365 79.9318 12.782 82.0508 14.4548 82.436C15.6911 82.725 66.7465 82.8213 127.911 82.6286C189.148 82.5323 239.913 82.725 240.858 83.2065C242.749 84.1697 242.822 85.5181 241.367 91.586C237.222 109.597 215.112 205.143 214.094 209.766C213.367 212.944 210.967 223.346 208.712 232.978C206.458 242.513 204.64 251.182 204.64 252.241C204.64 253.301 205.221 254.842 205.949 255.612C206.603 256.479 209.076 259.85 211.476 263.125L215.694 269H222.167C225.731 269 228.64 268.711 228.64 268.326C228.64 268.037 226.313 264.569 223.476 260.621C217.44 252.434 217.44 255.805 223.549 230.474C239.186 165.749 256.131 90.8155 257.659 79.6429C258.604 72.8044 257.586 68.1813 254.604 65.7734C252.349 63.847 249.877 63.847 132.566 63.847H12.8547L7.83647 55.9491C5.07279 51.6149 2.45457 47.4733 1.94547 46.6065C1.21819 45.3544 1.07273 46.7991 1 54.1191Z" fill="#F54336"/>
<path d="M1 98.0678V107.591L4.56453 113.018C6.52867 115.97 8.85652 119.684 9.80222 121.303L11.5481 124.16L106.772 124.731C159.222 125.017 202.36 125.588 202.724 125.874C203.451 126.445 202.869 131.207 201.414 137.111C200.905 139.206 198.795 148.157 196.686 157.108C194.576 165.965 190.43 183.582 187.447 196.151C184.464 208.721 180.172 226.815 177.917 236.432L173.916 253.859L179.663 261.477L185.41 269H192.103C195.813 269 198.868 268.714 198.868 268.238C198.868 267.857 196.54 264.524 193.776 260.906C191.011 257.287 188.684 253.478 188.684 252.526C188.684 251.573 189.484 247.669 190.43 243.955C191.375 240.146 194.212 228.529 196.686 218.054C199.159 207.579 202.796 192.342 204.76 184.248C210.871 158.727 217.564 130.064 221.201 114.066C221.856 111.304 222.147 108.543 221.928 107.781C221.637 106.638 205.124 106.353 116.884 105.781L12.2756 105.115L9.00202 100.163C7.18338 97.4012 4.63728 93.6874 3.4006 91.8781L1.07275 88.5452L1 98.0678Z" fill="#F54336"/>
<path d="M26.1667 146.724C25.8014 147.393 6 267.186 6 268.523C6 268.809 11.407 269 18.0562 269C29.9662 269 30.1124 269 30.4777 266.805C30.6238 265.659 31.2815 261.268 31.9391 257.068C32.5236 252.868 33.4735 246.664 34.058 243.228C34.7156 239.791 35.8847 232.537 36.6885 227.001C37.5653 221.464 39.3189 210.487 40.7072 202.66C42.0224 194.737 43.776 184.715 44.4337 180.228C45.1643 175.742 46.1142 171.733 46.4796 171.351C47.4294 170.397 58.6088 171.351 62.4814 172.688C69.1306 174.979 71.8341 182.519 68.9844 190.919C67.1577 196.265 63.8697 199.605 58.2435 201.705C50.7906 204.474 47.6486 208.864 47.6486 216.31C47.6486 219.555 50.6444 234.255 56.8552 261.077L58.6819 269H71.3957C80.0907 269 84.1825 268.714 84.1825 267.95C84.1825 267.377 81.6982 257.259 78.7024 245.423C75.7067 233.682 73.2224 223.182 73.2224 222.228C73.2224 221.273 74.3184 219.46 75.7067 218.123C83.1596 210.678 90.2472 198.651 92.7315 189.487C94.5582 182.424 94.412 172.497 92.2931 166.388C90.1741 160.088 85.5708 154.074 80.1638 150.352C75.7797 147.393 75.7797 147.393 60.0702 146.724C37.8576 145.77 26.6051 145.77 26.1667 146.724Z" fill="#F54336"/>
<path d="M110.922 146.237C110.27 146.524 109.547 147.48 109.33 148.341C108.461 151.783 106 168.897 106 171.096V173.39H117.147C125.398 173.39 128.438 173.677 129.017 174.633C129.596 175.494 129.451 178.267 128.438 184.481C125.688 201.5 122.648 220.239 119.029 242.994C116.93 255.71 115.41 266.801 115.699 267.566C115.989 268.713 117.943 269 126.484 269C134.011 269 137.124 268.618 137.703 267.757C138.427 266.61 141.611 247.966 147.981 206.854C152.686 176.641 152.975 175.016 153.989 174.155C154.495 173.773 159.924 173.39 166.149 173.39C174.328 173.39 177.657 173.104 178.236 172.148C179.105 170.713 182 153.504 182 149.488V146.62H168.754C161.444 146.62 145.737 146.429 133.794 146.142C121.924 145.95 111.573 145.95 110.922 146.237Z" fill="#F54336"/>
</svg>
